# xmcd CD database file
#
# Track frame offsets:
#	187
#	5267
#	26920
#	50865
#	77425
#	98095
#	122100
#	143010
#	169567
#	191455
#	214472
#	239082
#
# Disc length: 3508 seconds
#
# Revision: 0
# Processed by: cddbd v1.5PL3 Copyright (c) Steve Scherf et al.
# Submitted via: CDex 1.51
#
DISCID=a30db20c
DTITLE=The Tab Two - Flagman Ahead
DYEAR=1900
DGENRE=Jazz
TTITLE0=MBN TRUMPET INTRO
TTITLE1=VRAIMENT PARIS
TTITLE2=NO FLAGMAN AHEAD
TTITLE3=WANNA LAY (ON YOUR SIDE)
TTITLE4=SWINGBRIDGE
TTITLE5=(THERE'S) NOT A LOT
TTITLE6=WHATCHAGONNADO
TTITLE7=SCHUBERTPLATZ
TTITLE8=TAB JAM
TTITLE9=CURFEW
TTITLE10=PERMANENT PROTECTION
TTITLE11=NO FLAGMAN AHEAD (FOG MIX)
EXTD=
EXTT0=
EXTT1=
EXTT2=
EXTT3=
EXTT4=
EXTT5=
EXTT6=
EXTT7=
EXTT8=
EXTT9=
EXTT10=
EXTT11=
PLAYORDER=
